M48
;GenerationSoftware,Autodesk,EAGLE,9.7.0*%
;CreationDate,2023-01-17T15:45:28Z*%
FMAT,2
ICI,OFF
METRIC,TZ,000.000
T4C0.350
T3C0.840
T2C1.016
T1C1.100
%
G90
M71
T1
X25971Y67310
X32321Y31980
X34861Y31980
X25971Y80010
X25971Y77470
X25971Y74930
X25971Y72390
X25971Y69850
X25971Y46990
X25971Y64770
X25971Y62230
X25971Y59690
X25971Y57150
X25971Y54610
X25971Y52070
X25971Y49530
X37401Y31980
X25971Y44450
X25971Y41910
X25971Y39370
X25971Y36830
X25971Y34290
X25971Y31750
X43751Y31750
X43751Y34290
X43751Y36830
X43751Y39370
X43751Y41910
X43751Y44450
X43751Y46990
X43751Y49530
X43751Y52070
X43751Y54610
X43751Y57150
X43751Y59690
X43751Y62230
X43751Y64770
X43751Y67310
X43751Y69850
X43751Y72390
X43751Y74930
X43751Y77470
X43751Y80010
T2
X33020Y78740
X35560Y78740
X38100Y78740
T3
X39370Y68580
X39370Y71080
X39370Y73580
X31750Y68580
X31750Y71080
X31750Y73580
X38100Y62230
X38100Y59730
X38100Y57230
X38100Y54730
X30480Y62230
X30480Y59730
X30480Y57230
X30480Y54730
X32385Y46355
X29885Y46355
X40005Y46355
X37505Y46355
X31115Y36830
X33615Y36830
X36115Y36830
X38615Y36830
T4
X40005Y76835
X35560Y44450
X33020Y75565
M30