G04 EAGLE Gerber RS-274X export*
G75*
%MOMM*%
%FSLAX34Y34*%
%LPD*%
%INSoldermask Bottom*%
%IPPOS*%
%AMOC8*
5,1,8,0,0,1.08239X$1,22.5*%
G01*
G04 Define Apertures*
%ADD10C,1.853200*%
%ADD11C,1.727200*%
%ADD12C,1.551200*%
%ADD13R,2.873400X1.434400*%
%ADD14C,0.959600*%
D10*
X259710Y800100D02*
X243210Y800100D01*
X243210Y774700D02*
X259710Y774700D01*
X259710Y749300D02*
X243210Y749300D01*
X243210Y723900D02*
X259710Y723900D01*
X259710Y698500D02*
X243210Y698500D01*
X243210Y673100D02*
X259710Y673100D01*
X259710Y647700D02*
X243210Y647700D01*
X243210Y622300D02*
X259710Y622300D01*
X259710Y596900D02*
X243210Y596900D01*
X243210Y571500D02*
X259710Y571500D01*
X259710Y546100D02*
X243210Y546100D01*
X243210Y520700D02*
X259710Y520700D01*
X259710Y495300D02*
X243210Y495300D01*
X243210Y469900D02*
X259710Y469900D01*
X259710Y444500D02*
X243210Y444500D01*
X243210Y419100D02*
X259710Y419100D01*
X259710Y393700D02*
X243210Y393700D01*
X243210Y368300D02*
X259710Y368300D01*
X259710Y342900D02*
X243210Y342900D01*
X243210Y317500D02*
X259710Y317500D01*
X437510Y317500D02*
X454010Y317500D01*
X454010Y342900D02*
X437510Y342900D01*
X437510Y368300D02*
X454010Y368300D01*
X454010Y393700D02*
X437510Y393700D01*
X437510Y419100D02*
X454010Y419100D01*
X454010Y444500D02*
X437510Y444500D01*
X437510Y469900D02*
X454010Y469900D01*
X454010Y495300D02*
X437510Y495300D01*
X437510Y520700D02*
X454010Y520700D01*
X454010Y546100D02*
X437510Y546100D01*
X437510Y571500D02*
X454010Y571500D01*
X454010Y596900D02*
X437510Y596900D01*
X437510Y622300D02*
X454010Y622300D01*
X454010Y647700D02*
X437510Y647700D01*
X437510Y673100D02*
X454010Y673100D01*
X454010Y698500D02*
X437510Y698500D01*
X437510Y723900D02*
X454010Y723900D01*
X454010Y749300D02*
X437510Y749300D01*
X437510Y774700D02*
X454010Y774700D01*
X454010Y800100D02*
X437510Y800100D01*
X323210Y319800D02*
X323210Y303300D01*
X348610Y303300D02*
X348610Y319800D01*
X374010Y319800D02*
X374010Y303300D01*
D11*
X330200Y779780D02*
X330200Y795020D01*
X355600Y795020D02*
X355600Y779780D01*
X381000Y779780D02*
X381000Y795020D01*
D12*
X393700Y685800D03*
X393700Y710800D03*
X393700Y735800D03*
X317500Y685800D03*
X317500Y710800D03*
X317500Y735800D03*
X381000Y622300D03*
X381000Y597300D03*
X381000Y572300D03*
X381000Y547300D03*
X304800Y622300D03*
X304800Y597300D03*
X304800Y572300D03*
X304800Y547300D03*
X323850Y463550D03*
X298850Y463550D03*
X400050Y463550D03*
X375050Y463550D03*
X311150Y368300D03*
X336150Y368300D03*
X361150Y368300D03*
X386150Y368300D03*
D13*
X330200Y395905D03*
X330200Y442295D03*
X374650Y395905D03*
X374650Y442295D03*
D14*
X330200Y755650D03*
X400050Y768350D03*
X355600Y444500D03*
M02*
